<svg xmlns="http://www.w3.org/2000/svg" viewBox="0 0 280 72" aria-label="HOJ — inverse">
  <g transform="translate(6,6)">
    <path d="M30 0 L60 8 V34 C60 50 46 58 30 62 C14 58 0 50 0 34 V8 Z" fill="#F4EFE4"></path>
    <path d="M30 4 L56 11 V33 C56 46 44 54 30 58 C16 54 4 46 4 33 V11 Z" fill="none" stroke="#e3812a" stroke-width="1.2"></path>
    <g fill="#1E2A22" transform="translate(14,14)">
      <path d="M16 20 L18 13 L22 10 L18 8 L20 3 L16 5 L13 2 L12 6 L8 4 L9 9 L5 10 L9 13 L11 20 Z"></path>
      <circle cx="12" cy="24" r="5"></circle>
      <path d="M9 27 L7 33 L10 33 L11 30 Z M15 27 L17 33 L14 33 L13 30 Z"></path>
    </g>
    <text x="30" y="56" text-anchor="middle" font-family="Georgia, serif" font-size="7" font-weight="700" fill="#e3812a" letter-spacing="2">1968</text>
  </g>
  <g transform="translate(80,0)">
    <text x="0" y="32" font-family="Fraunces, Georgia, serif" font-size="28" font-weight="600" fill="#F4EFE4" letter-spacing="-0.5">HOJ</text>
    <text x="0" y="52" font-family="Inter, sans-serif" font-size="11" font-weight="500" fill="#B9A689" letter-spacing="0.5">Hadsten &amp; Omegns</text>
    <text x="0" y="66" font-family="Inter, sans-serif" font-size="11" font-weight="500" fill="#B9A689" letter-spacing="0.5">Jagtforening</text>
  </g>
</svg>